<svg id="Layer_1" data-name="Layer 1" xmlns="http://www.w3.org/2000/svg" viewBox="0 0 840.62 841.9"><defs><style>.cls-1{fill:#2966cb;}</style></defs><path class="cls-1" d="M189.53,237v89.37c0,5.09-1.69,6.79-6.78,7.36-48.09-.57-87.68,38.46-88.25,87.11-.56,48.08,38.47,87.67,87.11,88.24h47.52c6.22,0,7.92-1.7,7.92-7.92V182.71C238.18,80.89,321.33-.56,422.58,0A184.49,184.49,0,0,1,599.06,136.32a300.16,300.16,0,0,1,6.79,45.26c.57,5.09-1.13,7.35-6.79,7.35H516.48c-5.09,0-6.79-1.7-7.35-6.79A87.79,87.79,0,0,0,334.91,169.7a465.14,465.14,0,0,0-1.14,62.79c0,1.69,2.27,3.39,4.53,4a13.93,13.93,0,0,0,6.79,0H659c101.82,1.69,183.27,85.41,181.58,187.23a184.25,184.25,0,0,1-172.53,181c-14.14.57-14.14.57-14.14-13V515.31c0-5.66,1.7-7.35,7.36-7.92,48.08-.56,86.54-40.72,86-88.81s-40.73-86.54-88.81-86H613.21c-6.23,0-7.92,2.26-7.92,7.91V655.59c1.13,91.07-65,169.7-155,183.84-107.48,18.1-209.86-65.62-213.25-174.22,0-10.18,0-10.18,10.18-10.18h78.62c5.66,0,7.92,1.13,8.49,7.92,2.26,45.81,37.33,79.19,84.85,82.58,41.29,2.26,80.89-30,88.24-73,1.13-5.09,1.13-9.61,1.13-14.7V343.92c0-10.18,0-10.18-10.18-10.18H344c-10.19,0-10.19,0-10.19,10.74V595.63c0,9.62,0,10.19-10.18,10.19h-142c-91.07,0-170.26-72.41-180.44-162.91S48.12,267.56,136.36,243.8C153.33,238.14,171.43,236.45,189.53,237Z"/></svg>