<svg xmlns="http://www.w3.org/2000/svg" xmlns:xlink="http://www.w3.org/1999/xlink" version="1.1" id="Layer_1" x="0px" y="0px" style="enable-background:new 0 0 841.9 841.9;" xml:space="preserve" viewBox="202.1 296.3 437.7 249.3">
<style type="text/css">
	.st0{fill:#2966CB;}
	.st1{fill:#DD5B5E;}
</style>
<path class="st0" d="M380.2,338.2V354c0,0.9-0.3,1.2-1.2,1.3c-8.5-0.1-15.5,6.8-15.6,15.4c-0.1,8.5,6.8,15.5,15.4,15.6l0,0h8.4  c1.1,0,1.4-0.3,1.4-1.4v-30.4v-25.9c0.2-18,14.9-32.4,32.8-32.3c14.6,0.1,27.4,10,31.2,24.1c0.6,2.6,1,5.3,1.2,8  c0.1,0.9-0.2,1.3-1.2,1.3c-4.9,0-9.7,0-14.6,0c-0.9,0-1.2-0.3-1.3-1.2c-0.2-7.9-6.4-14.4-14.3-15c-8-0.7-15.2,4.9-16.5,12.8  c-0.3,3.7-0.4,7.4-0.2,11.1c0,0.3,0.4,0.6,0.8,0.7c0.4,0.1,0.8,0.1,1.2,0h55.5c18,0.3,32.4,15.1,32.1,33.1  c-0.3,17-13.5,30.9-30.5,32c-2.5,0.1-2.5,0.1-2.5-2.3v-13.5c0-1,0.3-1.3,1.3-1.4c8.5-0.1,15.3-7.2,15.2-15.7s-7.2-15.3-15.7-15.2  l0,0h-8c-1.1,0-1.4,0.4-1.4,1.4v55.7c0.2,16.1-11.5,30-27.4,32.5c-19,3.2-37.1-11.6-37.7-30.8c0-1.8,0-1.8,1.8-1.8h13.9  c1,0,1.4,0.2,1.5,1.4c0.4,8.1,6.6,14,15,14.6c7.3,0.4,14.3-5.3,15.6-12.9c0.2-0.9,0.2-1.7,0.2-2.6v-55.5c0-1.8,0-1.8-1.8-1.8h-27.3  c-1.8,0-1.8,0-1.8,1.9v44.4c0,1.7,0,1.8-1.8,1.8h-25.1c-16.1,0-30.1-12.8-31.9-28.8c-1.8-16,8.3-31,23.9-35.2  C373.8,338.4,377,338.1,380.2,338.2z"/>
<g transform="scale(1)">
	<g>
		<path class="st1" d="M250,462.6h-47.9v11.3h18.3v36.6h11.3v-36.6H250V462.6z M293.3,473.9v7h-24v-7H293.3z M303.8,510.5l-9.6-18.3    h2c2.3,0,4.3-0.8,6-2.5l0,0c1.7-1.7,2.5-3.7,2.5-6l0,0v-12.7c0-2.3-0.8-4.3-2.5-6l0,0c-1.7-1.7-3.6-2.5-6-2.5l0,0h-38v47.9h11.3    v-18.3h12.2l9.9,18.3H303.8z M348.1,462.6h-13l-22.4,47.9H325l16.6-34.7l17.2,34.7h12.3L348.1,462.6z M415.8,462.6h-12.3    l-16.6,34.6l-17.2-34.6h-12.3l23,47.9h13L415.8,462.6z M471.8,462.6h-47.9v47.9h47.9v-11.3h-36.6v-7.1h36.6V481h-36.6v-7h36.6    V462.6z M515.1,473.9v7h-24v-7H515.1z M525.6,510.5l-9.6-18.3h1.9c2.3,0,4.3-0.8,6-2.5l0,0c1.7-1.7,2.5-3.7,2.5-6l0,0v-12.7    c0-2.3-0.8-4.3-2.5-6l0,0c-1.7-1.7-3.6-2.5-6-2.5l0,0h-38v47.9h11.3v-18.3h12.2l9.9,18.3H525.6z M583.8,502.1V488    c0-1.7-0.5-3.1-1.6-4.4l0,0c-1-1.3-2.3-2.1-4-2.5l0,0l-0.6-0.1l-31.9,0v-7h26.8v4.2h11.3v-7c0-2.3-0.8-4.3-2.5-6l0,0    c-1.7-1.7-3.7-2.5-6-2.5l0,0h-32.4c-2.3,0-4.3,0.8-6,2.5l0,0c-1.7,1.7-2.5,3.6-2.5,6l0,0v14.1c0,1.7,0.5,3.2,1.6,4.4l0,0    c1,1.3,2.3,2.1,4,2.5l0,0l0.6,0.1l31.9,0v7.1h-26.8V495h-11.3v7.1c0,2.3,0.8,4.3,2.5,5.9l0,0c1.6,1.7,3.6,2.5,6,2.5l0,0h32.4    c2.3,0,4.3-0.8,6-2.5l0,0C583,506.4,583.8,504.4,583.8,502.1L583.8,502.1z M639.8,462.6h-47.9v47.9h47.9v-11.3h-36.6v-7.1h36.6    V481h-36.6v-7h36.6V462.6z"/>
	</g>
</g>
<rect x="214.5" y="534.3" class="st1" width="112.6" height="2.5"/>
<rect x="514.8" y="534.3" class="st1" width="112.6" height="2.5"/>
<g transform="translate(48.47499465942383,0)">
	<g transform="scale(1)">
		<path class="st1" d="M286.1,525.8v19.5h2.5v-19.5H286.1z M297.9,527.8v17.4h2.5v-17.4h5.9v-2.1H292v2.1H297.9z M315.9,541    l-1.5,1.7c0.8,0.9,1.9,1.6,3,2.1c1.2,0.5,2.4,0.8,3.8,0.8c1,0,1.9-0.1,2.7-0.4c0.8-0.3,1.5-0.7,2.1-1.2c0.6-0.5,1-1.1,1.3-1.8    c0.3-0.7,0.4-1.4,0.4-2.2c0-0.7-0.1-1.3-0.3-1.9c-0.2-0.5-0.5-1-0.9-1.4c-0.3-0.4-0.8-0.8-1.3-1.1s-1-0.6-1.6-0.8l-2.7-1.2    c-0.4-0.1-0.8-0.3-1.2-0.5c-0.4-0.2-0.7-0.4-1-0.6s-0.6-0.5-0.8-0.9c-0.2-0.3-0.3-0.7-0.3-1.2c0-0.9,0.3-1.6,1-2.1    c0.7-0.5,1.5-0.8,2.6-0.8c0.9,0,1.7,0.2,2.5,0.5s1.4,0.8,2,1.3l1.3-1.6c-0.7-0.7-1.5-1.3-2.5-1.8c-1-0.4-2.1-0.7-3.2-0.7    c-0.9,0-1.7,0.1-2.5,0.4c-0.7,0.2-1.4,0.6-1.9,1.1c-0.5,0.5-1,1-1.3,1.6c-0.3,0.6-0.5,1.3-0.5,2.1s0.1,1.3,0.3,1.9    c0.2,0.5,0.5,1,0.9,1.4c0.4,0.4,0.8,0.7,1.3,1c0.5,0.3,0.9,0.5,1.4,0.7l2.8,1.2c0.5,0.2,0.9,0.4,1.3,0.6c0.4,0.2,0.7,0.4,1,0.7    c0.3,0.2,0.5,0.5,0.7,0.9c0.2,0.3,0.2,0.8,0.2,1.3c0,1-0.3,1.7-1.1,2.3c-0.7,0.6-1.7,0.9-3,0.9c-1,0-2-0.2-2.9-0.7    C317.4,542.3,316.6,541.7,315.9,541z M338.9,545.6c1.2,0,2.4-0.2,3.4-0.7c1-0.5,1.9-1.2,2.6-2.1c0.7-0.9,1.3-1.9,1.7-3.2    c0.4-1.3,0.6-2.7,0.6-4.2s-0.2-2.9-0.6-4.2c-0.4-1.2-1-2.3-1.7-3.1c-0.7-0.9-1.6-1.5-2.6-2c-1-0.5-2.2-0.7-3.4-0.7    c-1.2,0-2.4,0.2-3.4,0.7c-1,0.4-1.9,1.1-2.6,2c-0.7,0.9-1.3,1.9-1.7,3.1c-0.4,1.2-0.6,2.6-0.6,4.2s0.2,3,0.6,4.2    c0.4,1.3,1,2.3,1.7,3.2c0.7,0.9,1.6,1.6,2.6,2.1C336.5,545.4,337.6,545.6,338.9,545.6z M338.9,543.4c-0.9,0-1.7-0.2-2.4-0.6    c-0.7-0.4-1.3-0.9-1.8-1.6c-0.5-0.7-0.9-1.6-1.2-2.5c-0.3-1-0.4-2.1-0.4-3.3s0.1-2.3,0.4-3.3c0.3-1,0.7-1.8,1.2-2.5    c0.5-0.7,1.1-1.2,1.8-1.6s1.5-0.5,2.4-0.5c0.9,0,1.7,0.2,2.4,0.5c0.7,0.4,1.3,0.9,1.8,1.6c0.5,0.7,0.9,1.5,1.2,2.5    c0.3,1,0.4,2.1,0.4,3.3s-0.1,2.3-0.4,3.3c-0.3,1-0.7,1.8-1.2,2.5c-0.5,0.7-1.1,1.2-1.8,1.6C340.5,543.2,339.7,543.4,338.9,543.4z     M351.4,525.8v19.5h11v-2.1h-8.5v-17.4H351.4z M364.9,525.8v11.4c0,1.6,0.2,2.9,0.5,3.9c0.4,1.1,0.8,2,1.5,2.6    c0.6,0.7,1.4,1.1,2.2,1.4c0.8,0.3,1.8,0.4,2.8,0.4c1,0,1.9-0.1,2.7-0.4c0.9-0.3,1.6-0.8,2.2-1.4c0.6-0.6,1.1-1.5,1.5-2.6    c0.4-1.1,0.5-2.4,0.5-3.9v-11.4h-2.4v11.5c0,1.2-0.1,2.2-0.4,2.9c-0.2,0.8-0.5,1.4-1,1.9c-0.4,0.5-0.9,0.8-1.5,1    c-0.5,0.2-1.2,0.3-1.8,0.3c-0.6,0-1.2-0.1-1.8-0.3c-0.6-0.2-1-0.5-1.4-1c-0.4-0.5-0.7-1.1-1-1.9c-0.2-0.8-0.4-1.8-0.4-2.9v-11.5    H364.9z M388.2,527.8v17.4h2.5v-17.4h5.9v-2.1h-14.3v2.1H388.2z M400.1,525.8v19.5h2.5v-19.5H400.1z M415.1,545.6    c1.2,0,2.4-0.2,3.4-0.7c1-0.5,1.9-1.2,2.6-2.1c0.7-0.9,1.3-1.9,1.7-3.2c0.4-1.3,0.6-2.7,0.6-4.2s-0.2-2.9-0.6-4.2    c-0.4-1.2-1-2.3-1.7-3.1c-0.7-0.9-1.6-1.5-2.6-2c-1-0.5-2.2-0.7-3.4-0.7c-1.2,0-2.4,0.2-3.4,0.7c-1,0.4-1.9,1.1-2.6,2    c-0.7,0.9-1.3,1.9-1.7,3.1c-0.4,1.2-0.6,2.6-0.6,4.2s0.2,3,0.6,4.2c0.4,1.3,1,2.3,1.7,3.2c0.7,0.9,1.6,1.6,2.6,2.1    C412.7,545.4,413.9,545.6,415.1,545.6z M415.1,543.4c-0.9,0-1.7-0.2-2.4-0.6c-0.7-0.4-1.3-0.9-1.8-1.6c-0.5-0.7-0.9-1.6-1.2-2.5    c-0.3-1-0.4-2.1-0.4-3.3s0.1-2.3,0.4-3.3c0.3-1,0.7-1.8,1.2-2.5c0.5-0.7,1.1-1.2,1.8-1.6s1.5-0.5,2.4-0.5c0.9,0,1.7,0.2,2.4,0.5    c0.7,0.4,1.3,0.9,1.8,1.6c0.5,0.7,0.9,1.5,1.2,2.5c0.3,1,0.4,2.1,0.4,3.3s-0.1,2.3-0.4,3.3c-0.3,1-0.7,1.8-1.2,2.5    c-0.5,0.7-1.1,1.2-1.8,1.6C416.7,543.2,416,543.4,415.1,543.4z M427.6,525.8v19.5h2.4V535c0-1,0-2.1-0.1-3.1c0-1-0.1-2-0.2-3h0.1    l2.1,4l7.1,12.3h2.6v-19.5h-2.4v10.1c0,1,0,2.1,0.1,3.1c0,1.1,0.1,2.1,0.2,3.1h-0.1l-2.1-4l-7-12.2H427.6z M446.9,541l-1.5,1.7    c0.8,0.9,1.9,1.6,3,2.1c1.2,0.5,2.4,0.8,3.8,0.8c1,0,1.9-0.1,2.7-0.4c0.8-0.3,1.5-0.7,2.1-1.2c0.6-0.5,1-1.1,1.3-1.8    c0.3-0.7,0.4-1.4,0.4-2.2c0-0.7-0.1-1.3-0.3-1.9c-0.2-0.5-0.5-1-0.9-1.4c-0.3-0.4-0.8-0.8-1.3-1.1c-0.5-0.3-1-0.6-1.6-0.8    l-2.7-1.2c-0.4-0.1-0.8-0.3-1.2-0.5c-0.4-0.2-0.7-0.4-1-0.6s-0.6-0.5-0.8-0.9c-0.2-0.3-0.3-0.7-0.3-1.2c0-0.9,0.3-1.6,1-2.1    c0.7-0.5,1.5-0.8,2.6-0.8c0.9,0,1.7,0.2,2.5,0.5s1.4,0.8,2,1.3l1.3-1.6c-0.7-0.7-1.5-1.3-2.5-1.8c-1-0.4-2.1-0.7-3.2-0.7    c-0.9,0-1.7,0.1-2.5,0.4s-1.4,0.6-1.9,1.1s-1,1-1.3,1.6c-0.3,0.6-0.5,1.3-0.5,2.1s0.1,1.3,0.3,1.9c0.2,0.5,0.5,1,0.9,1.4    c0.4,0.4,0.8,0.7,1.3,1c0.5,0.3,0.9,0.5,1.4,0.7l2.8,1.2c0.5,0.2,0.9,0.4,1.3,0.6c0.4,0.2,0.7,0.4,1,0.7c0.3,0.2,0.5,0.5,0.7,0.9    c0.2,0.3,0.2,0.8,0.2,1.3c0,1-0.3,1.7-1.1,2.3c-0.7,0.6-1.7,0.9-3,0.9c-1,0-2-0.2-2.9-0.7C448.4,542.3,447.6,541.7,446.9,541z"/>
	</g>
</g>
</svg>