<svg id="Layer_1" data-name="Layer 1" xmlns="http://www.w3.org/2000/svg" viewBox="0 0 437.7 249.3"><defs><style>.cls-1{fill:#fff;}</style></defs><path class="cls-1" d="M178.1,41.9V57.7c0,.9-.3,1.2-1.2,1.3a15.5,15.5,0,0,0-.2,31h8.4c1.1,0,1.4-.3,1.4-1.4V32.3a32.56,32.56,0,0,1,64-8.2,53.23,53.23,0,0,1,1.2,8c.1.9-.2,1.3-1.2,1.3H235.9c-.9,0-1.2-.3-1.3-1.2A15.52,15.52,0,0,0,203.8,30a82.27,82.27,0,0,0-.2,11.1c0,.3.4.6.8.7a2.44,2.44,0,0,0,1.2,0h55.5a32.59,32.59,0,0,1,1.6,65.1c-2.5.1-2.5.1-2.5-2.3V91.1c0-1,.3-1.3,1.3-1.4a15.45,15.45,0,1,0-.5-30.9h-8c-1.1,0-1.4.4-1.4,1.4v55.7a32.53,32.53,0,0,1-27.4,32.5c-19,3.2-37.1-11.6-37.7-30.8,0-1.8,0-1.8,1.8-1.8h13.9c1,0,1.4.2,1.5,1.4.4,8.1,6.6,14,15,14.6,7.3.4,14.3-5.3,15.6-12.9a11.4,11.4,0,0,0,.2-2.6V60.8c0-1.8,0-1.8-1.8-1.8H205.4c-1.8,0-1.8,0-1.8,1.9v44.4c0,1.7,0,1.8-1.8,1.8H176.7c-16.1,0-30.1-12.8-31.9-28.8a32.64,32.64,0,0,1,23.9-35.2A27,27,0,0,1,178.1,41.9Z"/><path class="cls-1" d="M47.9,166.3H0v11.3H18.3v36.6H29.6V177.6H47.9Zm43.3,11.3v7h-24v-7Zm10.5,36.6-9.6-18.3h2a8.16,8.16,0,0,0,6-2.5h0a8.16,8.16,0,0,0,2.5-6h0V174.7a8.16,8.16,0,0,0-2.5-6h0a8,8,0,0,0-6-2.5h-38v47.9H67.4V195.8H79.6l9.9,18.3h12.2ZM146,166.3H133l-22.4,47.9h12.3l16.6-34.7,17.2,34.7H169Zm67.7,0H201.4l-16.6,34.6-17.2-34.6H155.3l23,47.9h13Zm56,0H221.8v47.9h47.9V202.9H233.1v-7.1h36.6V184.7H233.1v-7h36.6ZM313,177.6v7H289v-7Zm10.5,36.6-9.6-18.3h1.9a8.16,8.16,0,0,0,6-2.5h0a8.16,8.16,0,0,0,2.5-6h0V174.7a8.16,8.16,0,0,0-2.5-6h0a8,8,0,0,0-6-2.5h-38v47.9h11.3V195.8h12.2l9.9,18.3h12.3Zm58.2-8.4V191.7a6.46,6.46,0,0,0-1.6-4.4h0a6.75,6.75,0,0,0-4-2.5h0l-.6-.1H343.6v-7h26.8v4.2h11.3v-7a8.16,8.16,0,0,0-2.5-6h0a8.16,8.16,0,0,0-6-2.5H340.8a8.16,8.16,0,0,0-6,2.5h0a8,8,0,0,0-2.5,6h0V189a6.29,6.29,0,0,0,1.6,4.4h0a6.75,6.75,0,0,0,4,2.5h0l.6.1h31.9v7.1H343.6v-4.4H332.3v7.1a7.79,7.79,0,0,0,2.5,5.9h0a7.85,7.85,0,0,0,6,2.5h32.4a8.16,8.16,0,0,0,6-2.5h0a7.79,7.79,0,0,0,2.5-5.9Zm56-39.5H389.8v47.9h47.9V202.9H401.1v-7.1h36.6V184.7H401.1v-7h36.6Z"/><rect class="cls-1" x="12.4" y="238" width="112.6" height="2.5"/><rect class="cls-1" x="312.7" y="238" width="112.6" height="2.5"/><path class="cls-1" d="M132.47,229.5V249H135V229.5Zm11.8,2v17.4h2.5V231.5h5.9v-2.1h-14.3v2.1Zm18,13.2-1.5,1.7a9,9,0,0,0,3,2.1,9.57,9.57,0,0,0,3.8.8,7.66,7.66,0,0,0,2.7-.4,7.19,7.19,0,0,0,2.1-1.2,4.63,4.63,0,0,0,1.3-1.8,5.38,5.38,0,0,0,.4-2.2,5.82,5.82,0,0,0-.3-1.9,4.19,4.19,0,0,0-.9-1.4,4.54,4.54,0,0,0-1.29-1.1,7.8,7.8,0,0,0-1.61-.8l-2.7-1.2a6.12,6.12,0,0,1-1.2-.5,8.79,8.79,0,0,1-1-.6,2.36,2.36,0,0,1-.8-.9,2.13,2.13,0,0,1-.3-1.2,2.39,2.39,0,0,1,1-2.1,4.27,4.27,0,0,1,2.61-.8,7,7,0,0,1,2.5.5,7.18,7.18,0,0,1,2,1.3l1.29-1.6a9.42,9.42,0,0,0-2.5-1.8,8.76,8.76,0,0,0-3.2-.7,6.9,6.9,0,0,0-2.5.4,4.53,4.53,0,0,0-1.9,1.1A6.53,6.53,0,0,0,162,232a4.78,4.78,0,0,0-.5,2.1,5.65,5.65,0,0,0,.3,1.9,4.19,4.19,0,0,0,.9,1.4,6.42,6.42,0,0,0,1.3,1,9.14,9.14,0,0,0,1.4.7l2.8,1.2c.5.2.9.4,1.3.6a3.59,3.59,0,0,1,1,.7,2.18,2.18,0,0,1,.7.9,2.55,2.55,0,0,1,.2,1.3,2.59,2.59,0,0,1-1.1,2.3,4.48,4.48,0,0,1-3,.9,5.92,5.92,0,0,1-2.9-.7A9,9,0,0,1,162.27,244.7Zm23,4.6a7.67,7.67,0,0,0,3.4-.7,7.55,7.55,0,0,0,2.6-2.1,9.74,9.74,0,0,0,1.7-3.2,14.76,14.76,0,0,0,0-8.4,9,9,0,0,0-1.7-3.1,7.27,7.27,0,0,0-2.6-2,8.61,8.61,0,0,0-6.8,0,6.3,6.3,0,0,0-2.6,2,10.3,10.3,0,0,0-1.7,3.1,15,15,0,0,0,0,8.4,9.74,9.74,0,0,0,1.7,3.2,7.55,7.55,0,0,0,2.6,2.1A7.39,7.39,0,0,0,185.27,249.3Zm0-2.2a4.75,4.75,0,0,1-2.4-.6,5.45,5.45,0,0,1-1.79-1.6,10,10,0,0,1-1.21-2.5,13.81,13.81,0,0,1,0-6.6,8.31,8.31,0,0,1,1.21-2.5,5.55,5.55,0,0,1,1.79-1.6,4.71,4.71,0,0,1,2.4-.5,6,6,0,0,1,2.4.5,5.48,5.48,0,0,1,1.8,1.6,8.3,8.3,0,0,1,1.2,2.5,13.81,13.81,0,0,1,0,6.6,8.3,8.3,0,0,1-1.2,2.5,5.48,5.48,0,0,1-1.8,1.6A5.29,5.29,0,0,1,185.27,247.1Zm12.5-17.6V249h11v-2.1h-8.5V229.5Zm13.5,0v11.4a13.7,13.7,0,0,0,.5,3.9,6,6,0,0,0,1.5,2.6,5.18,5.18,0,0,0,2.2,1.4,8.25,8.25,0,0,0,2.8.4,7.66,7.66,0,0,0,2.7-.4,5.58,5.58,0,0,0,2.21-1.4,7.13,7.13,0,0,0,1.5-2.6,11.55,11.55,0,0,0,.5-3.9V229.5h-2.4V241a7.78,7.78,0,0,1-.4,2.9,3.86,3.86,0,0,1-1,1.9,3.07,3.07,0,0,1-1.5,1,5.23,5.23,0,0,1-1.8.3,5.66,5.66,0,0,1-1.8-.3,2.81,2.81,0,0,1-1.4-1,6.74,6.74,0,0,1-1-1.9,11.93,11.93,0,0,1-.4-2.9V229.5Zm23.31,2v17.4h2.5V231.5H243v-2.1H228.68v2.1Zm11.89-2V249H249V229.5Zm15,19.8a7.65,7.65,0,0,0,3.4-.7,7.55,7.55,0,0,0,2.6-2.1,9.75,9.75,0,0,0,1.71-3.2,15,15,0,0,0,0-8.4,9.06,9.06,0,0,0-1.71-3.1,7.27,7.27,0,0,0-2.6-2,8.58,8.58,0,0,0-6.79,0,6.39,6.39,0,0,0-2.61,2,10.52,10.52,0,0,0-1.7,3.1,15,15,0,0,0,0,8.4,9.74,9.74,0,0,0,1.7,3.2,7.25,7.25,0,0,0,6,2.8Zm0-2.2a4.71,4.71,0,0,1-2.39-.6,5.38,5.38,0,0,1-1.8-1.6,9.65,9.65,0,0,1-1.2-2.5,13.81,13.81,0,0,1,0-6.6,8.07,8.07,0,0,1,1.2-2.5,5.48,5.48,0,0,1,1.8-1.6,4.67,4.67,0,0,1,2.39-.5,6,6,0,0,1,2.4.5,5.38,5.38,0,0,1,1.8,1.6,8.3,8.3,0,0,1,1.2,2.5,13.81,13.81,0,0,1,0,6.6,8.07,8.07,0,0,1-1.2,2.5,5.48,5.48,0,0,1-1.8,1.6A5,5,0,0,1,261.47,247.1ZM274,229.5V249h2.4V238.7c0-1,0-2.1-.1-3.1s-.1-2-.2-3h.1l2.1,4,7.1,12.3H288V229.4h-2.39v10.1c0,1,0,2.1.1,3.1a30.28,30.28,0,0,0,.2,3.1h-.1l-2.1-4-7-12.2Zm19.3,15.2-1.5,1.7a9,9,0,0,0,3,2.1,9.57,9.57,0,0,0,3.8.8,7.66,7.66,0,0,0,2.7-.4,7.19,7.19,0,0,0,2.1-1.2,4.63,4.63,0,0,0,1.3-1.8,5.38,5.38,0,0,0,.4-2.2,5.82,5.82,0,0,0-.3-1.9,4.19,4.19,0,0,0-.9-1.4,4.54,4.54,0,0,0-1.29-1.1,7.8,7.8,0,0,0-1.61-.8l-2.7-1.2a6.12,6.12,0,0,1-1.2-.5,8.79,8.79,0,0,1-1-.6,2.36,2.36,0,0,1-.8-.9,2.13,2.13,0,0,1-.3-1.2,2.39,2.39,0,0,1,1-2.1,4.27,4.27,0,0,1,2.61-.8,7,7,0,0,1,2.5.5,7.18,7.18,0,0,1,2,1.3l1.29-1.6a9.42,9.42,0,0,0-2.5-1.8,8.76,8.76,0,0,0-3.2-.7,6.9,6.9,0,0,0-2.5.4,5,5,0,0,0-1.9,1.1A6.53,6.53,0,0,0,293,232a4.78,4.78,0,0,0-.5,2.1,5.65,5.65,0,0,0,.3,1.9,4.19,4.19,0,0,0,.9,1.4,6.42,6.42,0,0,0,1.3,1,9.14,9.14,0,0,0,1.4.7l2.8,1.2c.5.2.9.4,1.3.6a3.59,3.59,0,0,1,1,.7,2.18,2.18,0,0,1,.7.9,2.55,2.55,0,0,1,.2,1.3,2.59,2.59,0,0,1-1.1,2.3,4.48,4.48,0,0,1-3,.9,5.92,5.92,0,0,1-2.9-.7A9,9,0,0,1,293.27,244.7Z"/></svg>