<?xml version="1.0" encoding="iso-8859-1"?>
<!-- Uploaded to: SVG Repo, www.svgrepo.com, Generator: SVG Repo Mixer Tools -->
<svg fill="#000000" version="1.1" id="Layer_1" xmlns="http://www.w3.org/2000/svg" xmlns:xlink="http://www.w3.org/1999/xlink" 
	 viewBox="0 0 494.2 494.2" xml:space="preserve">
<g>
	<g>
		<path d="M451.9,153.6v-40.96c0-50.82-41.34-92.16-92.16-92.16c-23.959,0-45.74,9.265-62.146,24.303
			C275.045,17.882,219.766,0,154.94,0C67.37,0,1.34,31.17,1.34,72.5v261.46c0,39.693,60.965,69.922,143.36,72.262v25.688
			c-9.409,3.2-16.79,10.581-19.99,19.99H45.86v20.48h78.85c4.299,12.643,16.151,21.82,30.23,21.82
			c14.079,0,25.931-9.177,30.23-21.82h78.85V451.9h-78.85c-3.2-9.409-10.581-16.79-19.99-19.99v-25.688
			c79.61-2.261,139.029-30.583,142.964-68.302H492.86V153.6H451.9z M288.06,112.64c0-39.52,32.16-71.68,71.68-71.68
			c39.52,0,71.68,32.16,71.68,71.68v40.96H288.06V112.64z M154.94,20.48c65.539,0,114.772,19.604,128.892,40.009
			c-7.612,11.045-12.797,23.841-14.994,37.633c-24.72,16.299-67.678,26.389-113.899,26.389c-78.45,0-133.12-27.41-133.12-52.01
			C21.82,47.9,76.49,20.48,154.94,20.48z M21.82,109.606c26.048,21.485,74.729,35.384,133.12,35.384
			c43.813,0,84.16-8.338,112.64-22.606V153.6h-40.96v49.211c-21.555,5.706-46.051,8.859-71.68,8.859
			c-78.45,0-133.12-27.42-133.12-52.02V109.606z M21.82,196.759c26.048,21.488,74.729,35.391,133.12,35.391
			c25.324,0,49.717-2.92,71.68-8.212v66.023c-21.527,5.706-46.024,8.859-71.68,8.859c-78.45,0-133.12-27.41-133.12-52.01V196.759z
			 M166.52,462.14c0,6.39-5.19,11.58-11.58,11.58c-6.39,0-11.58-5.19-11.58-11.58s5.19-11.58,11.58-11.58
			C161.33,450.56,166.52,455.75,166.52,462.14z M154.94,385.97c-78.45,0-133.12-27.41-133.12-52.01v-50.044
			C47.867,305.401,96.549,319.3,154.94,319.3c25.354,0,49.747-2.919,71.68-8.211v26.831h60.899
			C282.079,361.409,229.204,385.97,154.94,385.97z M472.38,317.44H247.1V174.08h20.48H451.9h20.48V317.44z"/>
	</g>
</g>
<g>
	<g>
		<rect x="277.82" y="215.039" width="163.84" height="20.48"/>
	</g>
</g>
<g>
	<g>
		<rect x="308.54" y="266.239" width="102.4" height="20.48"/>
	</g>
</g>
</svg>